<svg width="823" height="823" viewBox="0 0 823 823" fill="none" xmlns="http://www.w3.org/2000/svg">
<rect width="823" height="823" fill="#0B0B0B"/>
<rect x="57" y="57" width="709" height="709" rx="354.5" stroke="white" stroke-width="40"/>
<path d="M498.003 151H587V424.428C587 455.129 579.669 481.992 565.008 505.017C550.483 528.043 530.135 545.997 503.963 558.881C477.792 571.627 447.304 578 412.5 578C377.559 578 347.003 571.627 320.831 558.881C294.659 545.997 274.311 528.043 259.787 505.017C245.262 481.992 238 455.129 238 424.428V151H326.997V416.821C326.997 432.857 330.491 447.111 337.479 459.583C344.605 472.055 354.607 481.855 367.488 488.982C380.368 496.109 395.372 499.672 412.5 499.672C429.765 499.672 444.769 496.109 457.512 488.982C470.393 481.855 480.327 472.055 487.315 459.583C494.44 447.111 498.003 432.857 498.003 416.821V151Z" fill="#C0C0C0"/>
<path d="M244.756 655L131 269H247.769L300.504 506.48H303.517L366.046 269H457.954L520.483 507.234H523.496L576.231 269H693L579.244 655H479.048L413.507 439.383H410.493L344.952 655H244.756Z" fill="white"/>
</svg>
